<svg width="615" height="234" viewBox="0 0 615 234" fill="none" xmlns="http://www.w3.org/2000/svg">
<path d="M139.09 17.5C57.5899 82.5 1.58993 157.5 8.58993 166.5C15.5899 175.5 60.0899 156 74.5899 148.5C89.0899 141 113.09 126 131.09 116.5C149.09 107 208.59 78.5 216.59 72.5C224.59 66.5 283.59 31 288.59 32.5C293.59 34 271.59 60.5 231.09 93.5C190.59 126.5 180.59 148 182.09 152.5C183.59 157 207.09 162.5 257.09 131C307.09 99.5 437.59 42.5 438.59 53C439.59 63.5 393.09 105 386.09 113C379.09 121 345.09 152 353.09 160.5C361.09 169 400.59 159 478.59 125C556.59 91 627.59 59.5 536.59 93.5C445.59 127.5 351.09 179.5 292.59 198.5C230.65 218.617 154.59 232 144.09 223C133.59 214 263.59 145.5 288.59 131C313.59 116.5 449.59 54.5 505.59 36C550.39 21.2 591.59 11.1667 606.59 8" stroke="white" stroke-width="15" stroke-linecap="round"/>
</svg>
